<svg id="Capa_1" enable-background="new 0 0 511.932 511.932" height="512" viewBox="0 0 511.932 511.932" width="512" xmlns="http://www.w3.org/2000/svg"><g><path d="m451.91 218.795c-.209-.467-.396-.956-.6-1.451l-58.159-140.42-24.917 10.321-34.399-51.482-25.24 16.865-52.628-52.628c-.001.001-119.965 319.354-119.965 319.354l119.964 192.577c56.72 0 109.981-22.024 149.975-62.016 30.183-30.184 50.335-68.274 58.28-110.154 7.748-40.849 3.491-82.678-12.311-120.966z" fill="#ff4f75"/><path d="m203.338 52.628-25.24-16.865-34.399 51.482-24.917-10.321-58.768 141.875c-15.797 38.287-20.051 80.116-12.301 120.964 7.946 41.882 28.101 79.974 58.285 110.159 39.993 39.987 93.252 62.01 149.968 62.01v-511.931z" fill="#ff776b"/><path d="m351.466 221.469-95.5-95.501-119.965 193.386 119.964 132.577c36.133 0 70.048-14.016 95.501-39.465 52.658-52.658 52.658-138.339 0-190.997z" fill="#ffcc4a"/><path d="m160.466 221.469c-52.658 52.657-52.657 138.339.002 191.001 25.45 25.447 59.365 39.462 95.498 39.462v-325.964z" fill="#ffe278"/><path d="m255.966 271.932-36.316 60 36.316 60c33.084 0 60-26.916 60-60s-26.916-60-60-60z" fill="#fff0bf"/><path d="m195.966 331.932c0 33.084 26.916 60 60 60v-120c-33.084 0-60 26.915-60 60z" fill="#fff"/></g></svg>